# xmcd
#
# Track frame offsets:
# 150
# 13628
# 36908
# 62309
# 68275
# 81119
# 95970
# 120292
#
# Disc length: 1915 seconds
#
#
# Revision: 3
# Processed by: cddbd v1.5.1PL0 Copyright (c) Steve Scherf et al.
# Submitted via: FreeRIP 2.90 
#
DISCID=57077908
DTITLE=Sarah Webster Fabio - juju,s alchemy of the blues 1976
DYEAR=1976
DGENRE=Soul jazz
TTITLE0=The Hand that Rocks
TTITLE1=Sweet Songs
TTITLE2=juju for:grandma
TTITLE3=Chromo
TTITLE4=Still, a red hot Axe
TTITLE5=If we come as soft Rain
TTITLE6=Jujus/Alchemy of the Blues
TTITLE7=Jujus/Alchemy of the Blues - instrumental
EXTD=poems by sarah webster fabio\nread by sarah webster fabio\nwith musical background
EXTT0=
EXTT1=
EXTT2=
EXTT3=
EXTT4=
EXTT5=
EXTT6=
EXTT7=
PLAYORDER=
